<mxfile host="app.diagrams.net" agent="Mozilla/5.0 (Windows NT 10.0; Win64; x64) AppleWebKit/537.36 (KHTML, like Gecko) Chrome/130.0.0.0 Safari/537.36" version="26.1.0">
  <diagram name="Страница — 1" id="7hMVh02hVUJBmufN25Ig">
    <mxGraphModel dx="1877" dy="585" grid="1" gridSize="10" guides="1" tooltips="1" connect="1" arrows="1" fold="1" page="1" pageScale="1" pageWidth="827" pageHeight="1169" math="0" shadow="0">
      <root>
        <mxCell id="0" />
        <mxCell id="1" parent="0" />
        <mxCell id="QBhOa6LylWagwz2IlaS4-1" value="&lt;i style=&quot;font-weight: 400;&quot;&gt;&amp;lt;&amp;lt;Interface&amp;gt;&amp;gt;&lt;br&gt;&lt;/i&gt;&lt;div&gt;INode&lt;/div&gt;" style="swimlane;fontStyle=1;align=center;verticalAlign=top;childLayout=stackLayout;horizontal=1;startSize=40;horizontalStack=0;resizeParent=1;resizeParentMax=0;resizeLast=0;collapsible=1;marginBottom=0;whiteSpace=wrap;html=1;" parent="1" vertex="1">
          <mxGeometry x="270" y="188" width="160" height="92" as="geometry" />
        </mxCell>
        <mxCell id="QBhOa6LylWagwz2IlaS4-4" value="+ Evaluate(Variables): Real" style="text;strokeColor=none;fillColor=none;align=left;verticalAlign=top;spacingLeft=4;spacingRight=4;overflow=hidden;rotatable=0;points=[[0,0.5],[1,0.5]];portConstraint=eastwest;whiteSpace=wrap;html=1;" parent="QBhOa6LylWagwz2IlaS4-1" vertex="1">
          <mxGeometry y="40" width="160" height="26" as="geometry" />
        </mxCell>
        <mxCell id="QBhOa6LylWagwz2IlaS4-36" value="+ ToInfix(): String" style="text;strokeColor=none;fillColor=none;align=left;verticalAlign=top;spacingLeft=4;spacingRight=4;overflow=hidden;rotatable=0;points=[[0,0.5],[1,0.5]];portConstraint=eastwest;whiteSpace=wrap;html=1;" parent="QBhOa6LylWagwz2IlaS4-1" vertex="1">
          <mxGeometry y="66" width="160" height="26" as="geometry" />
        </mxCell>
        <mxCell id="g19xcCfMWkkVhfFzdJG2-36" style="edgeStyle=orthogonalEdgeStyle;rounded=0;orthogonalLoop=1;jettySize=auto;html=1;dashed=1;endArrow=open;endFill=0;endSize=12;" parent="1" target="QBhOa6LylWagwz2IlaS4-23" edge="1">
          <mxGeometry relative="1" as="geometry">
            <mxPoint x="210" y="480" as="sourcePoint" />
          </mxGeometry>
        </mxCell>
        <mxCell id="QBhOa6LylWagwz2IlaS4-23" value="OperandNode" style="swimlane;fontStyle=1;align=center;verticalAlign=top;childLayout=stackLayout;horizontal=1;startSize=26;horizontalStack=0;resizeParent=1;resizeParentMax=0;resizeLast=0;collapsible=1;marginBottom=0;whiteSpace=wrap;html=1;" parent="1" vertex="1">
          <mxGeometry x="130" y="360" width="160" height="78" as="geometry" />
        </mxCell>
        <mxCell id="g19xcCfMWkkVhfFzdJG2-39" value="−&amp;nbsp;_variable: String" style="text;strokeColor=none;fillColor=none;align=left;verticalAlign=top;spacingLeft=4;spacingRight=4;overflow=hidden;rotatable=0;points=[[0,0.5],[1,0.5]];portConstraint=eastwest;whiteSpace=wrap;html=1;" parent="QBhOa6LylWagwz2IlaS4-23" vertex="1">
          <mxGeometry y="26" width="160" height="26" as="geometry" />
        </mxCell>
        <mxCell id="QBhOa6LylWagwz2IlaS4-24" value="−&amp;nbsp;_value: Real" style="text;strokeColor=none;fillColor=none;align=left;verticalAlign=top;spacingLeft=4;spacingRight=4;overflow=hidden;rotatable=0;points=[[0,0.5],[1,0.5]];portConstraint=eastwest;whiteSpace=wrap;html=1;" parent="QBhOa6LylWagwz2IlaS4-23" vertex="1">
          <mxGeometry y="52" width="160" height="26" as="geometry" />
        </mxCell>
        <mxCell id="DnuPPPzDHdN-_0yHE_B9-1" style="edgeStyle=orthogonalEdgeStyle;rounded=0;orthogonalLoop=1;jettySize=auto;html=1;exitX=0.75;exitY=0;exitDx=0;exitDy=0;entryX=1;entryY=0.5;entryDx=0;entryDy=0;endArrow=open;endFill=0;endSize=12;" edge="1" parent="1" source="DnuPPPzDHdN-_0yHE_B9-5" target="QBhOa6LylWagwz2IlaS4-36">
          <mxGeometry relative="1" as="geometry">
            <mxPoint x="530" y="360" as="sourcePoint" />
          </mxGeometry>
        </mxCell>
        <mxCell id="DnuPPPzDHdN-_0yHE_B9-2" style="edgeStyle=orthogonalEdgeStyle;rounded=0;orthogonalLoop=1;jettySize=auto;html=1;exitX=0.75;exitY=0;exitDx=0;exitDy=0;entryX=1;entryY=0.25;entryDx=0;entryDy=0;endSize=12;endArrow=open;endFill=0;" edge="1" parent="1" source="DnuPPPzDHdN-_0yHE_B9-5" target="QBhOa6LylWagwz2IlaS4-1">
          <mxGeometry relative="1" as="geometry">
            <mxPoint x="530" y="360" as="sourcePoint" />
          </mxGeometry>
        </mxCell>
        <mxCell id="QBhOa6LylWagwz2IlaS4-38" value="" style="endArrow=block;dashed=1;endFill=0;endSize=12;html=1;rounded=0;entryX=0.492;entryY=1.031;entryDx=0;entryDy=0;entryPerimeter=0;edgeStyle=orthogonalEdgeStyle;exitX=0.5;exitY=0;exitDx=0;exitDy=0;" parent="1" source="QBhOa6LylWagwz2IlaS4-23" target="QBhOa6LylWagwz2IlaS4-36" edge="1">
          <mxGeometry width="160" relative="1" as="geometry">
            <mxPoint x="150" y="340" as="sourcePoint" />
            <mxPoint x="350" y="290" as="targetPoint" />
          </mxGeometry>
        </mxCell>
        <mxCell id="QBhOa6LylWagwz2IlaS4-39" value="" style="endArrow=none;dashed=1;endFill=0;endSize=12;html=1;rounded=0;edgeStyle=orthogonalEdgeStyle;exitX=0.5;exitY=0;exitDx=0;exitDy=0;startFill=0;" parent="1" source="DnuPPPzDHdN-_0yHE_B9-5" edge="1">
          <mxGeometry width="160" relative="1" as="geometry">
            <mxPoint x="490" y="360" as="sourcePoint" />
            <mxPoint x="350" y="320" as="targetPoint" />
            <Array as="points">
              <mxPoint x="490" y="370" />
              <mxPoint x="490" y="320" />
            </Array>
          </mxGeometry>
        </mxCell>
        <mxCell id="g19xcCfMWkkVhfFzdJG2-20" style="edgeStyle=orthogonalEdgeStyle;rounded=0;orthogonalLoop=1;jettySize=auto;html=1;exitX=1;exitY=0.5;exitDx=0;exitDy=0;dashed=1;endArrow=open;endFill=0;endSize=12;entryX=0.5;entryY=1;entryDx=0;entryDy=0;" parent="1" source="QBhOa6LylWagwz2IlaS4-40" edge="1" target="DnuPPPzDHdN-_0yHE_B9-5">
          <mxGeometry relative="1" as="geometry">
            <mxPoint x="490" y="440" as="targetPoint" />
          </mxGeometry>
        </mxCell>
        <mxCell id="g19xcCfMWkkVhfFzdJG2-38" style="edgeStyle=orthogonalEdgeStyle;rounded=0;orthogonalLoop=1;jettySize=auto;html=1;entryX=0;entryY=0.5;entryDx=0;entryDy=0;dashed=1;endArrow=open;endFill=0;endSize=12;" parent="1" source="QBhOa6LylWagwz2IlaS4-40" target="g19xcCfMWkkVhfFzdJG2-5" edge="1">
          <mxGeometry relative="1" as="geometry">
            <Array as="points">
              <mxPoint x="-20" y="553" />
            </Array>
          </mxGeometry>
        </mxCell>
        <mxCell id="DnuPPPzDHdN-_0yHE_B9-8" style="edgeStyle=orthogonalEdgeStyle;rounded=0;orthogonalLoop=1;jettySize=auto;html=1;exitX=0.75;exitY=0;exitDx=0;exitDy=0;entryX=0;entryY=0.5;entryDx=0;entryDy=0;dashed=1;endArrow=open;endFill=0;endSize=12;" edge="1" parent="1" source="QBhOa6LylWagwz2IlaS4-40" target="QBhOa6LylWagwz2IlaS4-4">
          <mxGeometry relative="1" as="geometry" />
        </mxCell>
        <mxCell id="QBhOa6LylWagwz2IlaS4-40" value="&lt;div&gt;&lt;span style=&quot;background-color: transparent; color: light-dark(rgb(0, 0, 0), rgb(255, 255, 255));&quot;&gt;&lt;u&gt;Parser&lt;/u&gt;&lt;/span&gt;&lt;/div&gt;" style="swimlane;fontStyle=1;align=center;verticalAlign=top;childLayout=stackLayout;horizontal=1;startSize=30;horizontalStack=0;resizeParent=1;resizeParentMax=0;resizeLast=0;collapsible=1;marginBottom=0;whiteSpace=wrap;html=1;" parent="1" vertex="1">
          <mxGeometry x="-105" y="451" width="170" height="56" as="geometry" />
        </mxCell>
        <mxCell id="QBhOa6LylWagwz2IlaS4-43" value="+ ParsePrefix(String): INode" style="text;strokeColor=none;fillColor=none;align=left;verticalAlign=top;spacingLeft=4;spacingRight=4;overflow=hidden;rotatable=0;points=[[0,0.5],[1,0.5]];portConstraint=eastwest;whiteSpace=wrap;html=1;fontStyle=4" parent="QBhOa6LylWagwz2IlaS4-40" vertex="1">
          <mxGeometry y="30" width="170" height="26" as="geometry" />
        </mxCell>
        <mxCell id="g19xcCfMWkkVhfFzdJG2-18" style="edgeStyle=orthogonalEdgeStyle;rounded=0;orthogonalLoop=1;jettySize=auto;html=1;exitX=0.5;exitY=1;exitDx=0;exitDy=0;entryX=0.5;entryY=0;entryDx=0;entryDy=0;dashed=1;endArrow=open;endFill=0;startSize=6;endSize=12;" parent="1" source="QBhOa6LylWagwz2IlaS4-44" target="QBhOa6LylWagwz2IlaS4-40" edge="1">
          <mxGeometry relative="1" as="geometry" />
        </mxCell>
        <mxCell id="g19xcCfMWkkVhfFzdJG2-19" style="edgeStyle=orthogonalEdgeStyle;rounded=0;orthogonalLoop=1;jettySize=auto;html=1;exitX=1;exitY=0.5;exitDx=0;exitDy=0;entryX=0.5;entryY=0;entryDx=0;entryDy=0;endArrow=open;endFill=0;endSize=12;dashed=1;" parent="1" source="QBhOa6LylWagwz2IlaS4-44" target="QBhOa6LylWagwz2IlaS4-1" edge="1">
          <mxGeometry relative="1" as="geometry" />
        </mxCell>
        <mxCell id="QBhOa6LylWagwz2IlaS4-44" value="Client" style="html=1;whiteSpace=wrap;" parent="1" vertex="1">
          <mxGeometry x="-75" y="70" width="110" height="50" as="geometry" />
        </mxCell>
        <mxCell id="g19xcCfMWkkVhfFzdJG2-1" value="OperatorInfo" style="swimlane;fontStyle=1;align=center;verticalAlign=top;childLayout=stackLayout;horizontal=1;startSize=26;horizontalStack=0;resizeParent=1;resizeParentMax=0;resizeLast=0;collapsible=1;marginBottom=0;whiteSpace=wrap;html=1;" parent="1" vertex="1">
          <mxGeometry x="676" y="488" width="170" height="112" as="geometry" />
        </mxCell>
        <mxCell id="g19xcCfMWkkVhfFzdJG2-2" value="+ A&lt;span style=&quot;background-color: transparent; color: light-dark(rgb(0, 0, 0), rgb(255, 255, 255));&quot;&gt;rity: Integer&lt;/span&gt;" style="text;strokeColor=none;fillColor=none;align=left;verticalAlign=top;spacingLeft=4;spacingRight=4;overflow=hidden;rotatable=0;points=[[0,0.5],[1,0.5]];portConstraint=eastwest;whiteSpace=wrap;html=1;" parent="g19xcCfMWkkVhfFzdJG2-1" vertex="1">
          <mxGeometry y="26" width="170" height="26" as="geometry" />
        </mxCell>
        <mxCell id="g19xcCfMWkkVhfFzdJG2-9" value="+ Priority&lt;span style=&quot;background-color: transparent; color: light-dark(rgb(0, 0, 0), rgb(255, 255, 255));&quot;&gt;: Integer&lt;/span&gt;" style="text;strokeColor=none;fillColor=none;align=left;verticalAlign=top;spacingLeft=4;spacingRight=4;overflow=hidden;rotatable=0;points=[[0,0.5],[1,0.5]];portConstraint=eastwest;whiteSpace=wrap;html=1;" parent="g19xcCfMWkkVhfFzdJG2-1" vertex="1">
          <mxGeometry y="52" width="170" height="26" as="geometry" />
        </mxCell>
        <mxCell id="DnuPPPzDHdN-_0yHE_B9-13" value="" style="line;strokeWidth=1;fillColor=none;align=left;verticalAlign=middle;spacingTop=-1;spacingLeft=3;spacingRight=3;rotatable=0;labelPosition=right;points=[];portConstraint=eastwest;strokeColor=inherit;" vertex="1" parent="g19xcCfMWkkVhfFzdJG2-1">
          <mxGeometry y="78" width="170" height="8" as="geometry" />
        </mxCell>
        <mxCell id="g19xcCfMWkkVhfFzdJG2-3" value="+ EvalFunc(): Real" style="text;strokeColor=none;fillColor=none;align=left;verticalAlign=top;spacingLeft=4;spacingRight=4;overflow=hidden;rotatable=0;points=[[0,0.5],[1,0.5]];portConstraint=eastwest;whiteSpace=wrap;html=1;" parent="g19xcCfMWkkVhfFzdJG2-1" vertex="1">
          <mxGeometry y="86" width="170" height="26" as="geometry" />
        </mxCell>
        <mxCell id="g19xcCfMWkkVhfFzdJG2-5" value="&lt;div&gt;&lt;b style=&quot;background-color: transparent; color: light-dark(rgb(0, 0, 0), rgb(255, 255, 255));&quot;&gt;&lt;u&gt;OperatorRegistry&lt;/u&gt;&lt;/b&gt;&lt;/div&gt;" style="swimlane;fontStyle=1;align=center;verticalAlign=top;childLayout=stackLayout;horizontal=1;startSize=29;horizontalStack=0;resizeParent=1;resizeParentMax=0;resizeLast=0;collapsible=1;marginBottom=0;whiteSpace=wrap;html=1;" parent="1" vertex="1">
          <mxGeometry x="414" y="508" width="160" height="90" as="geometry" />
        </mxCell>
        <mxCell id="g19xcCfMWkkVhfFzdJG2-8" value="&lt;u&gt;+&amp;nbsp;RegisterOperator(&lt;/u&gt;&lt;div&gt;&lt;u&gt;arity: Integer, priority: Integer,&amp;nbsp;&lt;span style=&quot;background-color: transparent; color: light-dark(rgb(0, 0, 0), rgb(255, 255, 255));&quot;&gt;EvalFunc: Real&lt;/span&gt;&lt;span style=&quot;background-color: transparent; color: light-dark(rgb(0, 0, 0), rgb(255, 255, 255));&quot;&gt;)&lt;/span&gt;&lt;/u&gt;&lt;/div&gt;" style="text;strokeColor=none;fillColor=none;align=left;verticalAlign=top;spacingLeft=4;spacingRight=4;overflow=hidden;rotatable=0;points=[[0,0.5],[1,0.5]];portConstraint=eastwest;whiteSpace=wrap;html=1;" parent="g19xcCfMWkkVhfFzdJG2-5" vertex="1">
          <mxGeometry y="29" width="160" height="61" as="geometry" />
        </mxCell>
        <mxCell id="g19xcCfMWkkVhfFzdJG2-10" style="edgeStyle=orthogonalEdgeStyle;rounded=0;orthogonalLoop=1;jettySize=auto;html=1;exitX=0;exitY=0.5;exitDx=0;exitDy=0;entryX=1;entryY=0.5;entryDx=0;entryDy=0;endArrow=diamondThin;endFill=0;endSize=16;" parent="1" source="g19xcCfMWkkVhfFzdJG2-9" target="g19xcCfMWkkVhfFzdJG2-5" edge="1">
          <mxGeometry relative="1" as="geometry" />
        </mxCell>
        <mxCell id="g19xcCfMWkkVhfFzdJG2-11" value="+Supported&lt;div&gt;Operators&lt;/div&gt;" style="text;html=1;align=center;verticalAlign=middle;whiteSpace=wrap;rounded=0;fontStyle=4" parent="1" vertex="1">
          <mxGeometry x="612" y="520" width="60" height="30" as="geometry" />
        </mxCell>
        <mxCell id="g19xcCfMWkkVhfFzdJG2-44" style="edgeStyle=orthogonalEdgeStyle;rounded=0;orthogonalLoop=1;jettySize=auto;html=1;exitX=1;exitY=0.5;exitDx=0;exitDy=0;entryX=0.5;entryY=0;entryDx=0;entryDy=0;endArrow=open;endFill=0;endSize=12;" parent="1" source="DnuPPPzDHdN-_0yHE_B9-5" target="g19xcCfMWkkVhfFzdJG2-1" edge="1">
          <mxGeometry relative="1" as="geometry">
            <mxPoint x="570" y="399" as="sourcePoint" />
          </mxGeometry>
        </mxCell>
        <mxCell id="g19xcCfMWkkVhfFzdJG2-47" value="&lt;span style=&quot;text-align: left; text-wrap-mode: wrap;&quot;&gt;#&lt;/span&gt;&lt;span style=&quot;text-align: left; text-wrap-mode: wrap; background-color: transparent; color: light-dark(rgb(0, 0, 0), rgb(255, 255, 255));&quot;&gt;&amp;nbsp;_operatorInfo&lt;/span&gt;" style="text;html=1;align=center;verticalAlign=middle;resizable=0;points=[];autosize=1;strokeColor=none;fillColor=none;" parent="1" vertex="1">
          <mxGeometry x="760" y="453" width="100" height="30" as="geometry" />
        </mxCell>
        <mxCell id="DnuPPPzDHdN-_0yHE_B9-3" value="&lt;span style=&quot;text-align: left; text-wrap-mode: wrap;&quot;&gt;−&amp;nbsp;_left&lt;/span&gt;" style="text;html=1;align=center;verticalAlign=middle;resizable=0;points=[];autosize=1;strokeColor=none;fillColor=none;" vertex="1" parent="1">
          <mxGeometry x="430" y="180" width="60" height="30" as="geometry" />
        </mxCell>
        <mxCell id="DnuPPPzDHdN-_0yHE_B9-4" value="&lt;span style=&quot;text-align: left; text-wrap-mode: wrap;&quot;&gt;−&amp;nbsp;_right&lt;/span&gt;" style="text;html=1;align=center;verticalAlign=middle;resizable=0;points=[];autosize=1;strokeColor=none;fillColor=none;" vertex="1" parent="1">
          <mxGeometry x="430" y="234" width="60" height="30" as="geometry" />
        </mxCell>
        <mxCell id="DnuPPPzDHdN-_0yHE_B9-5" value="&lt;span style=&quot;font-weight: 700;&quot;&gt;OperatorNode&lt;/span&gt;" style="html=1;whiteSpace=wrap;" vertex="1" parent="1">
          <mxGeometry x="430" y="370" width="110" height="50" as="geometry" />
        </mxCell>
      </root>
    </mxGraphModel>
  </diagram>
</mxfile>
